<svg xmlns="http://www.w3.org/2000/svg" viewBox="0 0 400 300" width="400" height="300">
  <ellipse cx="200" cy="290" rx="120" ry="8" fill="rgba(40, 50, 35, 0.12)"/>
  <path d="M 184 288 Q 168 135 228 60" stroke="#7a5636" stroke-width="18" fill="none" stroke-linecap="round"/>
  <path d="M 228 60 Q 159.7 45 114.1 78" stroke="#3d6b45" stroke-width="7" fill="none" stroke-linecap="round"/>
  <path d="M 228 60 Q 167.7 36.3 127.5 34.5" stroke="#2f5c3a" stroke-width="7" fill="none" stroke-linecap="round"/>
  <path d="M 228 60 Q 194.9 30.7 172.8 6.4" stroke="#2f5c3a" stroke-width="7" fill="none" stroke-linecap="round"/>
  <path d="M 228 60 Q 228 27.5 228 -9.7" stroke="#3d6b45" stroke-width="7" fill="none" stroke-linecap="round"/>
  <path d="M 228 60 Q 257 32.4 276.3 15.2" stroke="#4a7a52" stroke-width="7" fill="none" stroke-linecap="round"/>
  <path d="M 228 60 Q 287.7 36.4 327.5 34.9" stroke="#3d6b45" stroke-width="7" fill="none" stroke-linecap="round"/>
  <path d="M 228 60 Q 281.5 45 317.1 78" stroke="#2f5c3a" stroke-width="7" fill="none" stroke-linecap="round"/>
  <circle cx="221" cy="68" r="6" fill="#8a6b45"/>
  <circle cx="234" cy="71" r="6" fill="#8a6b45"/>
  <circle cx="228" cy="76" r="5" fill="#ec9bbf" opacity="0.9"/>
</svg>
